<svg id="Layer_1" data-name="Layer 1" xmlns="http://www.w3.org/2000/svg" viewBox="0 0 136.75 135.87"><defs><style>.cls-1{fill:#c3573e;}</style></defs><path class="cls-1" d="M68.37,0A68.42,68.42,0,0,0,3.89,91.16,3.26,3.26,0,0,0,10,89a61.87,61.87,0,1,1,70.65,40c-.42,0-.9.07-1.43.12-4,.36-10,.92-16.26-4.09-6.53-5.25-4.49-13.93-4.41-14.29a.75.75,0,0,0,0-.16L67.1,68.31l33.52-11a3.26,3.26,0,0,0-2-6.19L68.57,61l7.87-39.2a3.26,3.26,0,0,0-6.39-1.28L61.46,63.3,36.13,71.62a3.26,3.26,0,0,0,1,6.35,3.29,3.29,0,0,0,1-.16L60,70.64l-7.75,38.61c-.31,1.3-2.82,13.25,6.68,20.87a25.32,25.32,0,0,0,16.43,5.75c1.74,0,3.27-.14,4.5-.25.53-.05,1-.1,1.41-.12a3.55,3.55,0,0,0,.47-.06A68.38,68.38,0,0,0,68.37,0Z"/></svg>