<svg id="Layer_1" data-name="Layer 1" xmlns="http://www.w3.org/2000/svg" viewBox="0 0 492.43 216.62"><defs><style>.cls-1{fill:#c3573e;}.cls-2{fill:#848281;}</style></defs><path class="cls-1" d="M221.32,75.33a2,2,0,0,1-.63-3.9L283,51a2,2,0,1,1,1.25,3.8L221.94,75.23A2,2,0,0,1,221.32,75.33Z"/><path class="cls-1" d="M259.5,133.13a24.15,24.15,0,0,1-15.67-5.47c-9-7.2-6.47-18.57-6.22-19.59l17.77-88.62a2,2,0,1,1,3.93.79L241.52,108.9s0,.07,0,.1c-.1.39-2.34,9.79,4.83,15.55,6.64,5.32,13.21,4.71,17.13,4.35.55-.05,1-.1,1.48-.12A63,63,0,1,0,193.07,88a2,2,0,0,1-3.78,1.33,67,67,0,1,1,76.29,43.4,1.43,1.43,0,0,1-.29,0c-.42,0-.91.07-1.46.12C262.64,133,261.17,133.13,259.5,133.13Z"/><path class="cls-2" d="M47.34,160.18H3.45c-2.27,0-3.45,1.09-3.45,3s1.18,2.87,3.37,2.87H22.24v47.08a2.94,2.94,0,0,0,3.2,3,2.94,2.94,0,0,0,3.2-3V166.08H47.42c2.19,0,3.37-1,3.37-3S49.61,160.18,47.34,160.18Z"/><path class="cls-2" d="M102.25,194.63c11.28-1.09,16.17-9.94,16.17-17.1,0-9.52-6.49-17.35-20.55-17.35H80.6a2.7,2.7,0,0,0-3,2.86v50.12a2.94,2.94,0,0,0,3.2,3,2.91,2.91,0,0,0,3.2-3V195.05H94.58L114,214.59c.85.85,1.52,1.52,2.7,1.52a3.32,3.32,0,0,0,3.28-3.12,3.47,3.47,0,0,0-1.34-2.44ZM84,189.16V167.59c0-1,.42-1.51,1.51-1.51h11.8c10.19,0,14.48,5,14.48,11.54,0,6.73-4.29,11.54-14.48,11.54Z"/><path class="cls-2" d="M177.11,164.22c-1.26-2.95-2.86-4.54-5.72-4.54h-.34c-2.86,0-4.38,1.59-5.56,4.54l-19.88,46.16a6.86,6.86,0,0,0-.76,2.78,2.85,2.85,0,0,0,3,3,3.25,3.25,0,0,0,3.11-2.19l5-11.9,26.56-8.2,8.45,20.1a3.32,3.32,0,0,0,3,2.19,2.86,2.86,0,0,0,3.2-3,6.07,6.07,0,0,0-.43-1.85Zm-18,30.58,12-28.56h.17l8.94,21.65Z"/><path class="cls-2" d="M271.44,201.2a3.67,3.67,0,0,0-2.36,1.1c-3.37,2.94-9.18,8.17-18.86,8.17-13.06,0-22.5-9.19-22.5-22.49,0-12.81,9.27-22.66,21.74-22.66a28.5,28.5,0,0,1,14.4,4.12,5.8,5.8,0,0,0,2.87,1.1,2.74,2.74,0,0,0,2.77-2.78,3.84,3.84,0,0,0-1.85-3c-2.19-1.77-9.35-5.56-18.19-5.56-16,0-28.64,12.38-28.64,28.81,0,16.67,11.79,28.64,29.14,28.64a32.68,32.68,0,0,0,23-9.94,4,4,0,0,0,1.26-2.87A2.57,2.57,0,0,0,271.44,201.2Z"/><path class="cls-2" d="M326.35,183.18l19.37-18a3.62,3.62,0,0,0,1.35-2.61,3.26,3.26,0,0,0-3.12-2.94,4.11,4.11,0,0,0-2.69,1.34l-32.52,30.5v-28.9a2.94,2.94,0,0,0-3.2-2.94,3,3,0,0,0-3.2,2.94v50.54a3,3,0,0,0,3.2,3,2.94,2.94,0,0,0,3.2-3V199.6l13-12,19.63,26.61c.93,1.18,1.68,1.94,3,1.94A3.11,3.11,0,0,0,346.9,211Z"/><path class="cls-2" d="M412.84,209.71H385c-1.1,0-1.52-.51-1.52-1.52V190.67H404.5c2.27,0,3.45-1,3.45-2.95s-1.18-2.95-3.45-2.95H383.44V167.59c0-1,.42-1.51,1.52-1.51h27.63c2.19,0,3.37-1,3.37-2.87s-1.18-3-3.46-3h-32c-2.27,0-3.45,1.09-3.45,3v49.45c0,2,1.18,2.94,3.45,2.94h32.35c2.19,0,3.37-.92,3.37-2.94S415,209.71,412.84,209.71Z"/><path class="cls-2" d="M461.43,160.18H449.72a2.7,2.7,0,0,0-3,2.86v49.7a2.7,2.7,0,0,0,3,2.86h11.71c19.46,0,31-11.7,31-27.79S480.89,160.18,461.43,160.18Zm1.26,49.53H454.6c-1.09,0-1.51-.51-1.51-1.52v-40.6c0-1,.42-1.51,1.51-1.51h8.09c12.89,0,22.91,7.58,22.91,21.73S475.58,209.71,462.69,209.71Z"/></svg>