<svg id="Layer_1" data-name="Layer 1" xmlns="http://www.w3.org/2000/svg" viewBox="0 0 492.43 219.99"><defs><style>.cls-1{fill:#848281;}.cls-2{fill:#c3573e;}</style></defs><path class="cls-1" d="M47.34,163.55H3.45c-2.27,0-3.45,1.1-3.45,3s1.18,2.87,3.37,2.87H22.24v47.08a2.94,2.94,0,0,0,3.2,2.95,2.94,2.94,0,0,0,3.2-2.95V169.45H47.42c2.19,0,3.37-1,3.37-2.95S49.61,163.55,47.34,163.55Z"/><path class="cls-1" d="M102.25,198c11.28-1.09,16.17-9.94,16.17-17.1,0-9.51-6.49-17.35-20.55-17.35H80.6a2.71,2.71,0,0,0-3,2.87v50.11a2.94,2.94,0,0,0,3.2,2.95,2.91,2.91,0,0,0,3.2-2.95V198.42H94.58L114,218c.85.84,1.52,1.51,2.7,1.51a3.31,3.31,0,0,0,3.28-3.11,3.47,3.47,0,0,0-1.34-2.45ZM84,192.53V171c0-1,.42-1.51,1.51-1.51h11.8c10.19,0,14.48,5.05,14.48,11.54,0,6.74-4.29,11.54-14.48,11.54Z"/><path class="cls-1" d="M177.11,167.59c-1.26-2.94-2.86-4.54-5.72-4.54h-.34c-2.86,0-4.38,1.6-5.56,4.54l-19.88,46.16a6.86,6.86,0,0,0-.76,2.78,2.85,2.85,0,0,0,3,2.95,3.25,3.25,0,0,0,3.11-2.19l5-11.89,26.56-8.2L191,217.29a3.32,3.32,0,0,0,3,2.19,2.86,2.86,0,0,0,3.2-2.95,6.07,6.07,0,0,0-.43-1.85Zm-18,30.58,12-28.55h.17l8.94,21.64Z"/><path class="cls-1" d="M271.44,204.57a3.67,3.67,0,0,0-2.36,1.1c-3.37,3-9.18,8.17-18.86,8.17-13.06,0-22.5-9.18-22.5-22.49,0-12.8,9.27-22.66,21.74-22.66a28.39,28.39,0,0,1,14.4,4.13,5.87,5.87,0,0,0,2.87,1.09,2.74,2.74,0,0,0,2.77-2.78,3.84,3.84,0,0,0-1.85-3c-2.19-1.77-9.35-5.56-18.19-5.56-16,0-28.64,12.38-28.64,28.81C220.82,208,232.61,220,250,220a32.68,32.68,0,0,0,23-9.94,4,4,0,0,0,1.26-2.87A2.57,2.57,0,0,0,271.44,204.57Z"/><path class="cls-1" d="M326.35,186.55l19.37-17.94a3.66,3.66,0,0,0,1.35-2.62,3.27,3.27,0,0,0-3.12-2.94,4.11,4.11,0,0,0-2.69,1.34l-32.52,30.5V166a2.94,2.94,0,0,0-3.2-2.94,3,3,0,0,0-3.2,2.94v50.54a3,3,0,0,0,3.2,2.95,2.94,2.94,0,0,0,3.2-2.95V203l13-12,19.63,26.62c.93,1.17,1.68,1.93,3,1.93a3.11,3.11,0,0,0,2.53-5.14Z"/><path class="cls-1" d="M412.84,213.08H385c-1.1,0-1.52-.5-1.52-1.52V194H404.5c2.27,0,3.45-1,3.45-2.94s-1.18-2.95-3.45-2.95H383.44V171c0-1,.42-1.51,1.52-1.51h27.63c2.19,0,3.37-1,3.37-2.87s-1.18-3-3.46-3h-32c-2.27,0-3.45,1.1-3.45,3V216c0,2,1.18,2.95,3.45,2.95h32.35c2.19,0,3.37-.93,3.37-2.95S415,213.08,412.84,213.08Z"/><path class="cls-1" d="M461.43,163.55H449.72a2.71,2.71,0,0,0-3,2.87v49.69a2.71,2.71,0,0,0,3,2.87h11.71c19.46,0,31-11.71,31-27.8S480.89,163.55,461.43,163.55Zm1.26,49.53H454.6c-1.09,0-1.51-.5-1.51-1.52V171c0-1,.42-1.51,1.51-1.51h8.09c12.89,0,22.91,7.58,22.91,21.73S475.58,213.08,462.69,213.08Z"/><path class="cls-2" d="M252.49,2A68.42,68.42,0,0,0,188,93.16,3.26,3.26,0,0,0,194.15,91a61.87,61.87,0,1,1,70.65,40c-.43,0-.91.07-1.44.12-4,.36-10,.92-16.25-4.09-6.54-5.25-4.5-13.93-4.42-14.29a.75.75,0,0,0,0-.16l8.48-42.28,33.52-11a3.26,3.26,0,1,0-2-6.19l-30,9.86,7.86-39.2a3.26,3.26,0,0,0-6.39-1.28L245.57,65.3l-25.32,8.32a3.26,3.26,0,0,0,1,6.35,3.29,3.29,0,0,0,1-.16l21.82-7.17-7.75,38.61c-.31,1.3-2.82,13.25,6.68,20.87a25.32,25.32,0,0,0,16.43,5.75c1.75,0,3.27-.14,4.51-.25.53-.05,1-.1,1.41-.12l.47-.06A68.38,68.38,0,0,0,252.49,2Z"/><path class="cls-2" d="M259.46,139.87a27.21,27.21,0,0,1-17.68-6.19c-10.45-8.38-7.72-21.44-7.37-22.9l7.05-35.17-18.56,6.1a5.36,5.36,0,0,1-1.64.26,5.26,5.26,0,0,1-1.64-10.25l24.22-7.95L252.2,22.1a5.25,5.25,0,0,1,2.25-3.36A5.19,5.19,0,0,1,258.4,18a5.26,5.26,0,0,1,4.11,6.19L255.32,60l26.75-8.78a5.27,5.27,0,0,1,6.64,3.36,5.26,5.26,0,0,1-3.36,6.63L253,71.84,244.69,113a1.31,1.31,0,0,1-.06.27c-.07.3-1.83,7.77,3.73,12.23s10.93,4,14.81,3.66l1.36-.12A59.81,59.81,0,1,0,196,90.32a5.25,5.25,0,1,1-9.91,3.5,70.38,70.38,0,1,1,80.11,45.58,6.06,6.06,0,0,1-.76.1l-1.27.1A47.41,47.41,0,0,1,259.46,139.87Zm-12.73-70.2-8.41,42c-.31,1.28-2.57,12.07,6,18.92a23.39,23.39,0,0,0,15.18,5.31c1.64,0,3.12-.14,4.3-.24.61-.06,1.1-.11,1.52-.13l.17,0a66.35,66.35,0,1,0-75.56-43,1.26,1.26,0,1,0,2.37-.84A63.86,63.86,0,1,1,265.19,133l-.26,0-1.38.12c-4.05.37-10.81,1-17.69-4.52-7.53-6-5.21-15.91-5.11-16.32l8.73-43.51L284.1,57.4a1.21,1.21,0,0,0,.73-.62,1.24,1.24,0,0,0,.08-1,1.27,1.27,0,0,0-1.59-.81L250.05,65.94l8.54-42.56a1.27,1.27,0,0,0-1-1.48,1.25,1.25,0,0,0-.94.18,1.28,1.28,0,0,0-.54.8l-8.82,44-26.43,8.68a1.26,1.26,0,0,0-.8,1.59,1.26,1.26,0,0,0,1.58.8Z"/></svg>