<svg id="Layer_1" data-name="Layer 1" xmlns="http://www.w3.org/2000/svg" viewBox="0 0 140.75 139.87"><defs><style>.cls-1{fill:#c3573e;}</style></defs><path class="cls-1" d="M70.37,0A70.42,70.42,0,0,0,4,93.82a5.26,5.26,0,1,0,9.92-3.5A59.86,59.86,0,1,1,82.42,129l-1.36.11c-3.88.37-9.2.85-14.81-3.65s-3.8-11.94-3.73-12.23l.06-.27,8.25-41.14L103.24,61.2a5.25,5.25,0,0,0,3.35-6.63A5.26,5.26,0,0,0,100,51.21L73.21,60,80.4,24.17A5.26,5.26,0,0,0,76.28,18a5.23,5.23,0,0,0-6.19,4.12L61.73,63.77,37.51,71.72A5.26,5.26,0,0,0,39.15,82a5.36,5.36,0,0,0,1.64-.26l18.56-6.1-7.06,35.17c-.34,1.46-3.07,14.51,7.37,22.9a27.29,27.29,0,0,0,17.69,6.19c1.82,0,3.4-.14,4.74-.27l1.27-.1a6.06,6.06,0,0,0,.76-.1A70.38,70.38,0,0,0,70.37,0Z"/></svg>