<?xml version="1.0" encoding="UTF-8" standalone="no"?>
<svg
        xmlns="http://www.w3.org/2000/svg"
        id="Logo_Name"
        viewBox="0 0 492.43 57.43"
        width="492.43"
        height="57.43">
    <defs
            id="defs150">
        <style
                id="style148">.cls-1{fill:#848281;}.cls-2{fill:#c3573e;}
        </style>
    </defs>
    <path
            class="cls-1"
            d="M 47.34,0.98 H 3.45 C 1.18,0.98 0,2.08 0,3.98 0,5.88 1.18,6.85 3.37,6.85 h 18.87 v 47.08 a 2.94,2.94 0 0 0 3.2,2.95 2.94,2.94 0 0 0 3.2,-2.95 V 6.88 h 18.78 c 2.19,0 3.37,-1 3.37,-2.95 0,-1.95 -1.18,-2.95 -3.45,-2.95 z"
            id="path152"/>
    <path
            class="cls-1"
            d="m 102.25,35.43 c 11.28,-1.09 16.17,-9.94 16.17,-17.1 0,-9.51 -6.49,-17.35 -20.55,-17.35 H 80.6 a 2.71,2.71 0 0 0 -3,2.87 v 50.11 a 2.94,2.94 0 0 0 3.2,2.95 2.91,2.91 0 0 0 3.2,-2.95 V 35.85 H 94.58 L 114,55.43 c 0.85,0.84 1.52,1.51 2.7,1.51 a 3.31,3.31 0 0 0 3.28,-3.11 3.47,3.47 0 0 0 -1.34,-2.45 z M 84,29.96 V 8.43 c 0,-1 0.42,-1.51 1.51,-1.51 h 11.8 c 10.19,0 14.48,5.05 14.48,11.54 0,6.74 -4.29,11.54 -14.48,11.54 z"
            id="path154"/>
    <path
            class="cls-1"
            d="m 177.11,5.02 c -1.26,-2.94 -2.86,-4.54 -5.72,-4.54 h -0.34 c -2.86,0 -4.38,1.6 -5.56,4.54 l -19.88,46.16 a 6.86,6.86 0 0 0 -0.76,2.78 2.85,2.85 0 0 0 3,2.95 3.25,3.25 0 0 0 3.11,-2.19 l 5,-11.89 26.56,-8.2 8.48,20.09 a 3.32,3.32 0 0 0 3,2.19 2.86,2.86 0 0 0 3.2,-2.95 6.07,6.07 0 0 0 -0.43,-1.85 z m -18,30.58 12,-28.55 h 0.17 l 8.94,21.64 z"
            id="path156"/>
    <path
            class="cls-1"
            d="m 271.44,42 a 3.67,3.67 0 0 0 -2.36,1.1 c -3.37,3 -9.18,8.17 -18.86,8.17 -13.06,0 -22.5,-9.18 -22.5,-22.49 0,-12.8 9.27,-22.66 21.74,-22.66 a 28.39,28.39 0 0 1 14.4,4.13 5.87,5.87 0 0 0 2.87,1.09 2.74,2.74 0 0 0 2.77,-2.78 3.84,3.84 0 0 0 -1.85,-3 C 265.46,3.79 258.3,0 249.46,0 c -16,0 -28.64,12.38 -28.64,28.81 0,16.62 11.79,28.62 29.18,28.62 a 32.68,32.68 0 0 0 23,-9.94 4,4 0 0 0 1.26,-2.87 2.57,2.57 0 0 0 -2.82,-2.62 z"
            id="path158"/>
    <path
            class="cls-1"
            d="M 326.35,23.98 345.72,6.04 a 3.66,3.66 0 0 0 1.35,-2.62 3.27,3.27 0 0 0 -3.12,-2.94 4.11,4.11 0 0 0 -2.69,1.34 l -32.52,30.5 V 3.43 a 2.94,2.94 0 0 0 -3.2,-2.94 3,3 0 0 0 -3.2,2.94 v 50.54 a 3,3 0 0 0 3.2,2.95 2.94,2.94 0 0 0 3.2,-2.95 V 40.43 l 13,-12 19.63,26.62 c 0.93,1.17 1.68,1.93 3,1.93 a 3.11,3.11 0 0 0 2.53,-5.14 z"
            id="path160"/>
    <path
            class="cls-1"
            d="M 412.84,50.51 H 385 c -1.1,0 -1.52,-0.5 -1.52,-1.52 V 31.43 h 21.02 c 2.27,0 3.45,-1 3.45,-2.94 0,-1.94 -1.18,-2.95 -3.45,-2.95 H 383.44 V 8.43 c 0,-1 0.42,-1.51 1.52,-1.51 h 27.63 c 2.19,0 3.37,-1 3.37,-2.87 0,-1.87 -1.18,-3 -3.46,-3 h -32 c -2.27,0 -3.45,1.1 -3.45,3 v 49.38 c 0,2 1.18,2.95 3.45,2.95 h 32.35 c 2.19,0 3.37,-0.93 3.37,-2.95 0,-2.02 -1.22,-2.92 -3.38,-2.92 z"
            id="path162"/>
    <path
            class="cls-1"
            d="m 461.43,0.98 h -11.71 a 2.71,2.71 0 0 0 -3,2.87 v 49.69 a 2.71,2.71 0 0 0 3,2.87 h 11.71 c 19.46,0 31,-11.71 31,-27.8 0,-16.09 -11.54,-27.63 -31,-27.63 z m 1.26,49.53 h -8.09 c -1.09,0 -1.51,-0.5 -1.51,-1.52 V 8.43 c 0,-1 0.42,-1.51 1.51,-1.51 h 8.09 c 12.89,0 22.91,7.58 22.91,21.73 0,14.15 -10.02,21.86 -22.91,21.86 z"
            id="path164"/>
</svg>
